<svg xmlns="http://www.w3.org/2000/svg" version="1.0" width="1024.000000pt" height="1024.000000pt" viewBox="0 0 1024.000000 1024.000000" preserveAspectRatio="xMidYMid meet">

<g transform="translate(0.000000,1024.000000) scale(0.100000,-0.100000)" fill="#ffffff" stroke="none">
<path d="M2730 9785 c-52 -13 -140 -34 -194 -47 -96 -22 -100 -24 -108 -53 -6 -24 -18 -36 -50 -50 -24 -10 -79 -39 -123 -64 -44 -26 -100 -53 -125 -61 -63 -19 -132 -55 -227 -117 -45 -29 -87 -53 -92 -53 -6 0 -11 -6 -11 -13 0 -7 -25 -29 -55 -49 -30 -19 -52 -38 -49 -41 3 -3 -3 -12 -15 -19 -12 -7 -21 -23 -21 -36 0 -14 -9 -27 -25 -34 -14 -6 -25 -16 -25 -21 0 -6 -12 -26 -26 -45 l-27 -34 29 17 29 17 -27 -25 c-29 -27 -37 -54 -23 -76 5 -10 5 -16 -2 -18 -7 -3 -10 -27 -7 -66 3 -44 1 -55 -5 -37 -8 23 -9 24 -10 3 -1 -12 3 -24 8 -27 14 -9 20 -60 9 -73 -6 -7 -8 -31 -6 -53 3 -30 0 -41 -13 -45 -23 -8 -20 -71 4 -69 24 2 21 -24 -8 -62 -27 -35 -32 -49 -14 -38 9 5 10 -6 5 -42 -4 -27 -7 -54 -8 -61 -1 -7 -5 -10 -9 -7 -5 3 -17 -4 -28 -15 l-21 -21 21 -10 c15 -9 18 -15 10 -24 -6 -7 -8 -16 -4 -19 3 -4 0 -7 -7 -7 -10 0 -9 -4 3 -12 21 -17 12 -54 -15 -61 -17 -5 -18 -9 -8 -28 9 -16 9 -28 1 -46 -14 -30 -14 -63 -1 -63 6 0 10 10 11 23 1 14 5 9 11 -17 8 -30 8 -40 -3 -47 -14 -8 -30 -129 -17 -129 4 0 8 -4 8 -10 0 -5 -7 -10 -15 -10 -8 0 -15 -4 -15 -10 0 -5 7 -10 15 -10 8 0 15 -4 15 -10 0 -14 -23 -12 -40 3 -9 7 -9 5 1 -8 15 -19 19 -90 7 -111 -16 -27 17 -178 33 -153 7 11 9 9 9 -8 0 -12 -6 -23 -12 -26 -10 -3 -9 -14 4 -50 9 -26 13 -49 8 -52 -4 -3 -6 -23 -3 -45 5 -33 2 -45 -17 -65 -13 -14 -19 -25 -14 -25 13 0 33 -69 23 -76 -17 -10 -9 -98 10 -131 16 -25 17 -32 6 -37 -19 -7 -30 -72 -16 -90 9 -11 9 -15 -1 -19 -10 -4 -10 -8 2 -16 13 -9 12 -11 -5 -12 -11 0 -15 -2 -10 -5 6 -2 9 -32 7 -67 -10 -257 -13 -390 -7 -405 16 -38 24 -143 13 -164 -6 -13 -5 -18 6 -18 9 0 12 -7 9 -20 -3 -11 -9 -20 -13 -20 -5 0 -6 -9 -3 -20 3 -12 0 -20 -7 -20 -7 0 -9 -8 -5 -19 3 -12 0 -21 -10 -24 -12 -5 -13 -12 -4 -34 5 -15 16 -33 24 -39 12 -9 10 -13 -11 -23 -22 -10 -24 -14 -13 -27 10 -13 10 -17 0 -24 -9 -5 -10 -10 -2 -14 6 -4 11 -14 11 -22 0 -8 -4 -12 -10 -9 -16 10 -12 -7 7 -27 10 -12 12 -18 4 -18 -7 0 -9 -5 -5 -11 3 -6 1 -15 -5 -19 -9 -5 -9 -11 3 -22 13 -14 13 -18 -6 -38 -16 -17 -18 -24 -8 -30 11 -7 11 -11 1 -23 -8 -10 -9 -17 -1 -22 17 -11 11 -25 -12 -26 -16 -1 -18 -3 -7 -6 19 -5 32 -53 15 -53 -6 0 -4 -5 4 -10 8 -5 10 -10 4 -10 -6 0 -9 -10 -7 -24 3 -13 0 -33 -6 -45 -7 -11 -8 -21 -3 -21 14 0 2 -193 -14 -210 -9 -10 -10 -20 -4 -30 7 -10 10 -11 10 -2 0 6 4 12 10 12 5 0 7 -6 4 -14 -3 -8 -2 -16 3 -19 4 -3 6 -28 5 -56 -3 -33 -8 -49 -15 -44 -6 3 -7 1 -3 -6 4 -6 2 -20 -6 -29 -11 -15 -11 -15 3 -5 19 15 30 7 22 -15 -4 -10 -2 -13 5 -8 7 4 12 1 12 -9 0 -9 -10 -19 -22 -23 -21 -5 -21 -6 -2 -12 10 -4 23 -2 27 4 6 7 7 4 3 -7 -3 -10 -6 -25 -6 -33 0 -9 -5 -12 -11 -9 -6 4 -8 13 -5 21 3 8 0 11 -10 7 -18 -7 -18 -11 1 -30 16 -16 12 -33 -8 -33 -7 0 -6 4 3 10 9 6 10 10 3 10 -24 0 -23 -20 1 -30 27 -10 33 -24 15 -36 -11 -6 -8 -40 6 -76 5 -13 2 -16 -17 -11 -19 4 -20 3 -8 -7 9 -7 11 -13 4 -16 -11 -5 -3 -98 9 -110 4 -4 3 -12 -2 -18 -5 -6 -10 -40 -12 -76 -1 -36 -4 -69 -7 -74 -3 -5 -4 -38 -3 -72 3 -69 -5 -95 -21 -73 -7 10 -8 9 -4 -6 2 -11 7 -56 11 -100 4 -44 11 -88 17 -98 12 -23 1 -42 -17 -27 -9 8 -15 8 -20 0 -3 -5 1 -10 9 -10 28 0 38 -37 31 -116 -4 -40 -10 -72 -14 -70 -3 2 -7 -26 -9 -62 -1 -36 -7 -69 -12 -72 -13 -8 -1 -70 14 -71 6 -1 0 -5 -14 -9 -24 -8 -24 -8 -2 -9 28 -1 29 -17 1 -32 -13 -7 -19 -17 -16 -29 3 -11 0 -22 -7 -25 -8 -3 -8 -7 2 -11 15 -7 16 -41 0 -46 -14 -5 9 -148 26 -161 8 -5 6 -11 -4 -20 -12 -9 -15 -25 -12 -60 2 -28 -1 -53 -8 -62 -9 -11 -9 -15 -1 -15 6 0 11 -17 11 -40 0 -22 5 -40 10 -40 8 0 8 -6 1 -17 -7 -14 -4 -24 12 -42 12 -13 17 -21 10 -17 -6 3 -15 1 -18 -4 -6 -11 -16 -150 -16 -230 0 -26 -3 -31 -10 -20 -8 12 -9 9 -7 -10 1 -14 -2 -31 -6 -39 -6 -10 -5 -12 2 -7 7 4 12 3 12 -2 0 -13 -29 -24 -42 -15 -7 3 -8 1 -4 -5 4 -7 1 -12 -6 -12 -7 -1 -4 -6 7 -13 22 -13 36 -87 16 -87 -6 0 -11 -4 -11 -10 0 -5 9 -10 20 -10 11 0 20 -4 20 -10 0 -5 -9 -10 -20 -10 -11 0 -20 -4 -20 -10 0 -5 9 -10 20 -10 11 0 20 -7 20 -15 0 -8 -9 -15 -20 -15 -11 0 -20 -7 -20 -15 0 -8 5 -15 10 -15 15 0 12 -27 -6 -61 -8 -17 -21 -29 -28 -26 -6 3 -12 -3 -12 -12 0 -9 8 -17 17 -17 11 0 15 6 11 16 -5 13 -3 13 11 1 9 -7 15 -17 12 -21 -2 -4 -8 -38 -11 -75 -5 -47 -3 -66 4 -61 6 3 14 1 18 -6 4 -7 4 -10 -1 -6 -18 17 -43 -13 -49 -61 -4 -28 -10 -52 -14 -55 -10 -6 -4 -147 7 -160 5 -6 8 -32 7 -58 -1 -27 2 -50 7 -52 4 -3 2 -3 -5 -2 -8 2 -12 14 -10 29 2 15 -1 27 -8 27 -6 0 -8 -4 -5 -10 3 -5 0 -10 -7 -10 -8 0 -9 -3 -3 -8 6 -4 11 -20 13 -37 2 -16 8 -31 13 -33 14 -6 11 -22 -5 -22 -24 0 -31 -22 -12 -36 13 -9 16 -20 11 -48 -5 -23 -3 -36 4 -36 6 0 8 6 5 14 -3 8 -1 16 4 20 15 9 7 -35 -9 -45 -12 -8 -12 -10 0 -18 11 -7 11 -9 0 -14 -10 -4 -10 -6 -1 -6 20 -1 14 -39 -8 -46 -11 -3 -20 -13 -20 -21 0 -8 -4 -14 -10 -14 -5 0 -1 -9 10 -20 11 -11 25 -20 30 -20 6 0 10 -4 10 -10 0 -5 -13 -7 -28 -4 -25 5 -28 3 -30 -27 -1 -18 -8 -39 -15 -47 -9 -12 -9 -16 1 -19 6 -3 12 -17 12 -31 0 -21 -2 -24 -10 -12 -9 13 -12 12 -22 -5 -7 -11 -14 -31 -16 -45 -2 -14 -7 -26 -13 -28 -5 -2 -9 -11 -9 -21 0 -10 -13 -44 -29 -77 -24 -50 -26 -60 -13 -65 13 -4 11 -9 -9 -23 -20 -14 -21 -18 -9 -26 12 -7 12 -14 2 -43 -7 -18 -12 -42 -11 -53 1 -15 3 -14 9 6 l8 25 1 -27 c1 -22 -4 -28 -19 -28 -11 0 -20 -4 -20 -10 0 -5 12 -10 26 -10 34 0 29 -31 -6 -41 -24 -7 -24 -7 -2 -8 16 -1 22 -7 22 -24 0 -15 9 -28 23 -35 21 -11 21 -11 -4 -6 -24 5 -25 3 -21 -26 3 -22 1 -30 -9 -28 -8 2 -19 -14 -27 -39 -8 -24 -20 -43 -28 -43 -20 0 -17 -37 4 -50 12 -8 13 -13 5 -16 -7 -3 -13 -13 -13 -22 0 -13 -2 -14 -9 -4 -7 12 -23 -56 -25 -110 -1 -9 -4 -20 -9 -24 -4 -4 -7 -17 -7 -29 0 -24 -28 -55 -49 -55 -9 0 -12 -9 -9 -24 4 -19 1 -24 -12 -21 -13 3 -16 -2 -13 -16 3 -12 -2 -26 -13 -37 -11 -9 -25 -29 -32 -44 -6 -16 -16 -28 -22 -28 -5 0 -10 -9 -10 -21 0 -19 -4 -20 -40 -14 -32 5 -40 4 -40 -8 0 -9 -10 -17 -22 -19 -13 -2 -22 -9 -20 -16 1 -8 -2 -11 -8 -7 -6 3 -14 -4 -19 -17 -6 -13 -10 -18 -10 -12 -1 17 -34 12 -49 -8 -35 -47 -134 -65 -418 -78 -114 -5 -209 -12 -212 -15 -8 -7 77 -6 393 6 162 6 753 10 1398 10 693 -1 1177 3 1275 9 86 6 261 13 387 15 127 3 343 9 480 15 138 5 498 16 800 25 303 8 694 19 870 25 176 6 480 15 675 20 195 5 375 12 400 15 25 3 275 10 555 15 281 6 641 14 800 20 160 5 433 14 608 20 175 6 328 15 340 20 15 6 -9 8 -68 5 -235 -12 -424 -15 -428 -8 -3 5 -7 1505 -8 3334 l-2 3326 -226 7 c-124 4 -302 11 -396 16 -181 10 -676 30 -1380 55 -236 8 -518 20 -625 25 -190 10 -687 29 -1275 50 -159 6 -382 14 -495 20 -113 5 -275 12 -361 16 l-156 6 -5 -31 -5 -31 51 0 c50 -1 275 -9 811 -29 143 -6 409 -15 590 -21 182 -6 470 -17 640 -25 560 -26 775 -35 1130 -45 362 -11 829 -30 1330 -55 160 -8 300 -15 311 -15 17 0 23 -8 28 -32 9 -48 11 -367 2 -375 -10 -10 -102 -8 -476 11 -336 17 -707 28 -1471 46 -244 6 -635 17 -869 25 -234 9 -690 20 -1015 25 -324 6 -693 15 -820 19 -147 6 -234 6 -240 0 -7 -7 -11 -1105 -13 -3244 l-2 -3235 -118 -1 c-130 0 -308 -6 -453 -14 -71 -4 -99 -2 -107 8 -9 12 -17 169 -27 587 -6 223 -14 370 -21 381 -2 4 1 11 7 15 9 5 8 10 -3 18 -19 14 -31 112 -16 139 8 16 8 22 -1 25 -6 2 -11 22 -11 43 0 24 4 38 10 34 6 -3 10 2 10 12 0 14 2 15 9 4 14 -23 24 24 10 50 -7 14 -9 44 -6 78 3 31 2 47 -3 36 -7 -19 -8 -18 -11 5 -3 14 -9 24 -15 23 -13 -2 -14 31 -2 94 6 37 6 58 -2 73 -8 15 -8 30 -1 51 9 26 8 29 -10 29 -10 0 -19 5 -19 10 0 6 5 10 11 10 6 0 10 17 9 43 -5 87 0 153 10 137 7 -11 10 -4 10 28 0 40 -1 42 -30 42 -28 0 -30 2 -20 20 6 11 20 20 30 20 17 0 20 7 20 50 0 28 -4 50 -10 50 -5 0 -10 11 -10 25 0 14 -6 34 -12 45 -10 16 -10 22 -1 28 12 8 23 116 26 274 2 87 0 98 -15 98 -10 0 -18 5 -18 10 0 6 10 10 23 10 13 0 17 3 11 8 -18 11 -26 67 -30 221 -4 139 -3 143 16 138 11 -3 18 -1 14 4 -3 5 -12 9 -20 9 -20 0 -17 20 4 21 14 0 13 2 -4 9 -15 6 -21 15 -18 32 2 13 8 53 14 90 8 51 8 72 -1 86 -10 15 -9 24 3 40 18 27 12 83 -8 75 -9 -3 -14 2 -14 16 0 12 6 21 15 21 8 0 15 5 15 11 0 7 -11 9 -27 5 -16 -3 -22 -3 -15 0 6 3 9 11 6 16 -4 6 -3 9 2 5 5 -3 14 6 21 19 6 13 7 24 2 24 -5 0 -9 9 -9 20 0 11 -4 20 -10 20 -6 0 -10 27 -10 60 0 39 -4 60 -12 60 -6 0 -8 3 -5 6 3 4 2 15 -3 25 -14 24 23 47 46 28 10 -8 14 -8 14 0 0 6 -4 11 -10 11 -5 0 -10 11 -10 25 0 14 -5 25 -12 25 -6 0 -3 7 8 15 16 12 16 14 3 15 -12 0 -15 7 -11 28 l6 27 7 -25 c5 -18 6 -11 5 22 -1 47 -14 64 -39 53 -7 -3 -2 2 11 11 16 12 22 27 22 55 0 22 5 39 11 39 6 0 9 10 7 23 -2 15 -9 21 -20 19 -16 -3 -18 7 -18 98 0 55 -5 108 -11 118 -14 23 5 76 25 69 8 -3 20 0 26 8 10 11 7 13 -17 9 -23 -3 -25 -2 -10 6 9 6 17 20 17 32 0 16 -5 19 -21 15 -16 -4 -19 -2 -13 11 3 9 6 29 5 45 -1 15 3 27 9 27 5 0 10 11 10 24 0 18 7 26 23 29 21 4 21 4 -3 6 -20 1 -22 3 -10 11 12 8 11 10 -7 10 -20 0 -23 5 -23 40 0 22 5 40 10 40 6 0 9 13 8 28 -2 33 8 52 28 52 18 0 18 30 -1 57 -21 29 -22 189 -2 209 11 12 8 26 -4 18 -8 -5 -9 6 -4 37 4 24 12 47 17 50 5 3 -4 12 -21 19 -25 10 -31 19 -31 41 0 16 5 29 11 29 8 0 8 4 0 13 -8 10 -7 17 1 25 9 9 8 18 -1 38 -10 22 -9 29 1 35 10 7 10 9 1 9 -8 0 -13 13 -13 30 0 17 5 30 10 30 6 0 10 18 10 40 0 23 5 40 11 40 6 0 8 7 5 16 -3 9 1 25 9 37 8 12 15 41 15 64 0 25 5 43 11 43 7 0 9 10 5 26 -4 16 -2 32 6 42 11 13 11 14 -2 10 -8 -2 -20 1 -27 8 -17 16 -17 74 0 74 8 0 7 4 -3 11 -11 8 -12 12 -2 16 8 3 12 31 12 89 0 66 3 84 14 84 10 0 17 16 22 48 8 47 10 260 2 267 -2 2 -1 33 2 68 5 58 4 63 -13 59 -12 -3 -20 2 -24 17 -3 12 -13 21 -24 21 -24 0 -24 8 0 29 21 18 30 59 18 79 -6 8 -1 12 17 12 24 0 25 -3 28 -67 2 -38 4 72 5 242 0 171 -2 300 -4 287 -3 -15 -10 -22 -21 -20 -14 3 -17 17 -17 81 0 49 -5 81 -12 85 -9 6 -7 16 6 39 13 21 16 34 9 41 -15 15 1 34 23 27 18 -6 19 0 19 103 0 138 -10 232 -24 232 -7 0 -11 -25 -11 -69 0 -38 4 -67 8 -64 4 2 5 -8 1 -23 -5 -19 -4 -25 5 -20 7 5 11 -1 11 -14 0 -19 -4 -21 -25 -16 -27 7 -32 -3 -14 -21 7 -7 8 -20 5 -30 -11 -28 -47 49 -45 95 1 20 1 44 0 52 -1 13 -2 13 -11 0 -7 -11 -10 -11 -10 -2 0 8 -5 10 -12 6 -8 -4 -10 -3 -5 2 9 9 13 10 41 13 18 1 28 51 10 51 -21 0 -17 20 4 20 16 1 16 1 0 14 -10 7 -18 18 -18 24 0 6 -6 13 -12 15 -7 3 3 6 22 7 32 2 33 3 10 10 -24 8 -24 8 -2 9 12 1 22 5 22 10 0 4 -12 6 -26 3 -18 -3 -25 -1 -20 6 3 6 0 13 -6 15 -8 3 -6 6 4 6 15 1 16 5 7 28 -5 15 -9 36 -8 47 3 41 -1 56 -15 56 -24 0 -27 16 -7 39 13 14 25 19 37 15 16 -6 15 -4 -3 13 -24 21 -30 43 -14 43 5 0 17 8 27 17 13 13 19 14 22 5 2 -6 12 -12 22 -12 10 0 20 -6 23 -12 3 -7 4 30 4 82 0 52 -2 78 -4 57 -3 -26 -8 -35 -16 -30 -7 4 -16 8 -22 9 -5 0 -25 4 -44 9 l-33 8 3 161 4 161 -30 0 c-29 0 -30 -2 -33 -47 -2 -36 -8 -51 -24 -59 -24 -13 -130 -50 -133 -47 -2 2 -6 14 -9 28 -6 20 -5 22 4 10 8 -12 10 -3 8 37 -2 47 1 53 31 79 27 23 35 25 43 13 8 -11 9 -11 4 3 -3 12 16 38 65 84 39 39 73 81 78 98 5 17 10 23 10 14 1 -9 4 -24 8 -34 5 -13 3 -15 -7 -9 -10 6 -11 2 -6 -21 4 -16 11 -31 16 -34 5 -3 13 -17 18 -30 11 -28 56 -39 65 -16 9 23 -5 166 -16 166 -9 0 -6 -64 8 -135 l5 -30 -11 27 c-7 18 -15 25 -25 21 -13 -5 -15 1 -9 38 3 24 7 65 8 92 2 46 1 47 -29 47 -16 0 -35 5 -42 12 -13 13 -150 66 -192 75 -25 4 -25 7 -26 101 -1 81 0 88 6 44 11 -75 22 -84 87 -76 30 3 72 12 95 18 l40 12 -1 114 c-1 63 -4 117 -7 119 -9 9 -59 -15 -61 -29 -1 -8 -5 -41 -8 -73 -7 -58 -7 -58 -38 -55 -28 3 -32 7 -35 37 -5 48 18 201 30 201 5 0 7 14 3 33 -5 27 -4 30 7 16 7 -9 25 -16 39 -16 44 0 94 -31 112 -69 23 -47 22 -52 -10 -46 -25 5 -27 4 -14 -11 7 -10 21 -17 30 -18 12 0 11 -2 -4 -8 -12 -5 -23 -4 -27 3 -4 6 -7 -29 -6 -79 1 -49 3 -71 5 -48 4 39 5 41 39 41 29 0 34 -3 34 -23 0 -13 5 -27 10 -30 6 -4 10 34 10 107 1 193 12 643 16 647 9 10 12 -11 18 -124 4 -65 9 -121 11 -124 3 -2 5 59 5 137 l0 142 -37 -1 c-21 0 -81 -11 -133 -24z m-10 -45 c0 -13 -7 -20 -20 -20 -11 0 -20 -4 -20 -10 0 -13 -37 -13 -42 -1 -1 6 -16 12 -33 15 -16 2 -32 5 -35 6 -9 3 94 28 123 29 21 1 27 -4 27 -19z m-70 -270 c0 -5 -5 -10 -11 -10 -5 0 -7 5 -4 10 3 6 8 10 11 10 2 0 4 -4 4 -10z m27 -22 c-3 -8 -6 -5 -6 6 -1 11 2 17 5 13 3 -3 4 -12 1 -19z m0 -110 c-3 -8 -6 -5 -6 6 -1 11 2 17 5 13 3 -3 4 -12 1 -19z m113 -198 c-8 -5 -19 -10 -25 -10 -5 0 -3 5 5 10 8 5 20 10 25 10 6 0 3 -5 -5 -10z m-235 -403 c4 -17 5 -54 3 -81 -3 -48 -4 -49 -21 -32 -15 15 -17 27 -11 60 4 22 7 51 6 64 -3 34 16 26 23 -11z m202 -4 c-3 -10 -5 -4 -5 12 0 17 2 24 5 18 2 -7 2 -21 0 -30z m-90 -9 c3 -8 -7 -28 -21 -45 l-26 -31 0 50 c0 46 2 50 21 45 11 -3 23 -12 26 -19z m-1151 -381 c-7 -7 -26 7 -26 19 0 6 6 6 15 -2 9 -7 13 -15 11 -17z m1153 -125 c0 -43 -6 -39 -23 14 -3 12 -11 15 -22 11 -12 -4 -15 -3 -10 5 4 7 18 12 32 12 22 0 24 -4 23 -42z m-1174 -208 c3 -5 1 -10 -4 -10 -6 0 -11 5 -11 10 0 6 2 10 4 10 3 0 8 -4 11 -10z m1345 -630 c0 -5 -9 -10 -20 -10 -11 0 -20 5 -20 10 0 6 9 10 20 10 11 0 20 -4 20 -10z m-1340 -320 c0 -5 -4 -10 -10 -10 -5 0 -10 5 -10 10 0 6 5 10 10 10 6 0 10 -4 10 -10z m1301 -153 c-13 -13 -26 -3 -16 12 3 6 11 8 17 5 6 -4 6 -10 -1 -17z m-1314 -49 c-3 -8 -6 -5 -6 6 -1 11 2 17 5 13 3 -3 4 -12 1 -19z m1338 -168 c-5 -8 -11 -8 -17 -2 -6 6 -7 16 -3 22 5 8 11 8 17 2 6 -6 7 -16 3 -22z m-35 -90 c0 -5 -2 -10 -4 -10 -3 0 -8 5 -11 10 -3 6 -1 10 4 10 6 0 11 -4 11 -10z m1750 -70 c588 -10 1244 -24 1600 -35 96 -3 344 -10 550 -15 206 -6 456 -15 555 -20 99 -5 331 -12 515 -14 184 -3 405 -10 490 -15 85 -6 161 -10 168 -11 9 0 12 -142 12 -677 0 -373 -4 -682 -8 -688 -4 -7 -171 -8 -482 -5 l-475 5 -5 647 c-3 355 -8 649 -12 653 -12 12 -25 -3 -32 -37 -4 -18 -7 -909 -6 -1980 l1 -1948 -63 -1 c-35 0 -155 -4 -268 -9 -113 -6 -493 -14 -845 -20 -656 -10 -1840 -36 -2045 -45 -63 -2 -221 -7 -351 -11 l-236 -6 -7 23 c-3 13 -5 970 -4 2127 l3 2103 170 -6 c94 -3 442 -10 775 -15z m-1716 -154 c-3 -15 -8 -25 -11 -23 -2 3 -1 17 3 31 3 15 8 25 11 23 2 -3 1 -17 -3 -31z m-31 7 c-12 -9 -13 -13 -3 -13 7 0 11 -3 7 -6 -3 -3 -14 -1 -24 5 -14 8 -14 10 -3 11 13 0 13 2 1 9 -10 7 -6 9 13 8 24 -2 25 -3 9 -14z m14 -95 c-3 -7 -5 -2 -5 12 0 14 2 19 5 13 2 -7 2 -19 0 -25z m-10 -80 c-3 -7 -5 -2 -5 12 0 14 2 19 5 13 2 -7 2 -19 0 -25z m27 -38 c-6 -6 -10 -3 -10 10 0 13 4 16 10 10 7 -7 7 -13 0 -20z m-40 -80 c-6 -6 -10 -3 -10 10 0 13 4 16 10 10 7 -7 7 -13 0 -20z m-1309 -140 c-3 -5 -11 -10 -16 -10 -6 0 -7 5 -4 10 3 6 11 10 16 10 6 0 7 -4 4 -10z m1285 -80 c0 -5 -5 -10 -11 -10 -5 0 -7 5 -4 10 3 6 8 10 11 10 2 0 4 -4 4 -10z m-1310 -301 c0 -5 -4 -9 -10 -9 -5 0 -10 7 -10 16 0 8 5 12 10 9 6 -3 10 -10 10 -16z m6672 -569 l308 0 -2 -617 -3 -618 -482 -3 -482 -2 0 617 c0 470 3 619 12 626 7 5 86 6 176 3 90 -3 303 -6 473 -6z m-6675 -172 c-3 -8 -6 -5 -6 6 -1 11 2 17 5 13 3 -3 4 -12 1 -19z m1320 6 c-3 -3 -12 -4 -19 -1 -8 3 -5 6 6 6 11 1 17 -2 13 -5z m-22 -34 c3 -6 -1 -7 -9 -4 -18 7 -21 14 -7 14 6 0 13 -4 16 -10z m-1311 -228 c3 -5 -1 -9 -9 -9 -8 0 -12 4 -9 9 3 4 7 8 9 8 2 0 6 -4 9 -8z m1306 -122 c0 -5 -4 -10 -10 -10 -5 0 -10 5 -10 10 0 6 5 10 10 10 6 0 10 -4 10 -10z m-1320 -510 c0 -5 -4 -10 -10 -10 -5 0 -10 5 -10 10 0 6 5 10 10 10 6 0 10 -4 10 -10z m0 -24 c0 -3 -4 -8 -10 -11 -5 -3 -10 -1 -10 4 0 6 5 11 10 11 6 0 10 -2 10 -4z m-13 -68 c-3 -8 -6 -5 -6 6 -1 11 2 17 5 13 3 -3 4 -12 1 -19z m7021 -765 l-3 -628 -215 -6 c-118 -4 -246 -11 -285 -17 -38 -6 -144 -13 -235 -17 -91 -3 -178 -8 -195 -10 l-30 -5 0 648 0 647 250 5 c138 3 355 7 483 8 l232 2 -2 -627z m-7038 -197 c0 -3 -4 -8 -10 -11 -5 -3 -10 -1 -10 4 0 6 5 11 10 11 6 0 10 -2 10 -4z m-37 -73 c-7 -2 -19 -2 -25 0 -7 3 -2 5 12 5 14 0 19 -2 13 -5z m7075 -970 l-3 -568 -140 -7 c-248 -12 -658 -28 -743 -28 l-82 0 2 558 3 557 80 7 c44 4 132 12 195 19 107 11 381 23 598 27 l92 2 -2 -567z m-1020 -55 l-3 -543 -260 -6 c-143 -3 -347 -10 -452 -14 l-193 -8 0 547 0 546 193 1 c105 1 239 5 297 9 58 3 176 7 263 8 l157 2 -2 -542z m-960 -3 c1 -286 0 -529 -2 -541 -5 -20 -14 -21 -441 -34 -239 -7 -438 -10 -443 -6 -4 4 -8 250 -10 547 l-3 539 28 1 c78 4 681 15 768 15 l100 -1 3 -520z m-948 -39 l0 -544 -42 -6 c-32 -5 -681 -25 -833 -26 -20 0 -20 6 -17 547 2 301 5 550 7 552 5 4 477 17 733 19 l152 2 0 -544z m-950 -25 l0 -549 -102 -6 c-57 -3 -202 -8 -323 -11 -121 -3 -291 -8 -378 -12 l-158 -6 5 244 c3 134 5 385 5 557 l1 312 168 1 c92 1 253 5 357 8 105 4 243 8 308 9 l117 2 0 -549z m-3253 367 c-3 -7 -5 -2 -5 12 0 14 2 19 5 13 2 -7 2 -19 0 -25z m-27 -543 c0 -8 -4 -15 -10 -15 -5 0 -10 7 -10 15 0 8 5 15 10 15 6 0 10 -7 10 -15z m-89 -274 c-8 -5 -10 -14 -6 -22 6 -11 5 -11 -5 -2 -14 12 -6 33 13 33 8 0 7 -3 -2 -9z m7249 -526 l0 -475 -77 -1 c-43 0 -105 -2 -138 -4 -33 -2 -136 -6 -230 -9 -93 -3 -248 -9 -342 -13 l-173 -6 -2 469 c-2 304 1 472 7 476 6 4 91 8 190 9 99 0 286 6 415 13 129 7 261 14 293 15 l57 1 0 -475z m-1018 8 c2 -241 1 -454 0 -474 l-4 -36 -291 -7 c-161 -4 -362 -11 -447 -15 -85 -5 -158 -6 -162 -4 -5 2 -8 218 -8 479 l0 474 178 1 c97 1 249 5 337 9 88 3 213 7 277 8 l117 2 3 -437z m-962 -50 c0 -258 -4 -474 -9 -481 -6 -10 -98 -15 -402 -22 -217 -5 -413 -12 -436 -15 l-43 -5 0 479 0 478 61 7 c34 3 141 7 238 7 146 1 416 9 559 17 l32 2 0 -467z m-947 400 c5 -33 -1 -915 -6 -919 -4 -2 -881 -24 -883 -21 -1 1 -5 214 -7 473 l-5 471 216 8 c119 4 296 11 392 15 96 3 200 7 231 8 l56 2 6 -37z m-953 -467 c0 -370 -3 -475 -12 -479 -7 -2 -83 -5 -168 -6 -85 -1 -292 -8 -460 -16 -168 -7 -306 -12 -308 -10 -7 7 -14 825 -8 887 l7 66 82 6 c87 7 553 22 750 24 l117 2 0 -474z m-1903 88 c-3 -3 -12 -4 -19 -1 -8 3 -5 6 6 6 11 1 17 -2 13 -5z" fill="#ffffff"/>
<path d="M3757 6343 c-4 -3 -7 -53 -7 -110 0 -94 2 -104 17 -101 11 2 20 15 23 32 4 23 12 32 35 38 36 9 75 42 75 64 0 29 -22 56 -55 70 -36 15 -77 18 -88 7z m77 -49 c9 -8 16 -17 16 -19 0 -2 -7 -11 -16 -19 -25 -25 -44 -20 -44 12 0 44 17 54 44 26z" fill="#ffffff"/>
<path d="M3927 6327 c-11 -28 5 -207 18 -207 7 0 16 16 19 35 7 38 31 47 41 16 7 -24 43 -56 52 -47 4 4 -2 24 -14 45 l-22 38 24 22 c31 26 31 38 2 74 -27 35 -110 51 -120 24z m93 -42 c17 -20 4 -35 -31 -35 -21 0 -29 5 -29 18 0 10 3 22 7 25 11 12 40 8 53 -8z" fill="#ffffff"/>
<path d="M4131 6308 c-40 -32 -41 -35 -35 -78 10 -78 43 -120 92 -120 28 0 102 86 102 119 0 53 -54 111 -105 111 -7 0 -31 -15 -54 -32z m89 -38 c43 -43 11 -104 -52 -98 -32 3 -33 4 -33 48 0 37 4 46 25 57 33 17 37 16 60 -7z" fill="#ffffff"/>
<path d="M4389 6328 c-1 -2 -2 -36 -3 -75 -1 -40 -5 -75 -8 -79 -3 -3 -22 -1 -42 4 -31 9 -36 8 -36 -7 0 -27 29 -61 54 -61 12 0 32 10 44 23 19 20 22 35 22 110 0 71 -3 87 -15 87 -8 0 -16 -1 -16 -2z" fill="#ffffff"/>
<path d="M4456 6321 c-3 -5 -4 -35 -1 -67 2 -33 4 -77 5 -99 l0 -40 60 3 c51 3 60 7 60 23 0 16 -7 19 -46 19 -41 0 -45 2 -42 23 2 18 10 23 46 25 34 3 43 7 40 20 -2 12 -15 18 -41 20 -44 4 -51 29 -9 38 47 10 52 13 52 29 0 12 -13 15 -59 15 -33 0 -62 -4 -65 -9z" fill="#ffffff"/>
<path d="M4657 6319 c-21 -12 -47 -61 -47 -89 0 -11 9 -38 20 -60 33 -65 84 -79 120 -33 26 34 15 45 -33 32 -48 -13 -67 0 -67 45 0 60 50 98 80 61 15 -19 40 -20 40 -2 0 22 -44 57 -71 57 -13 0 -32 -5 -42 -11z" fill="#ffffff"/>
<path d="M4790 6307 c0 -18 5 -23 28 -22 l27 0 3 -87 c2 -69 6 -88 17 -88 12 0 15 17 15 85 0 82 1 85 23 85 30 0 36 6 30 31 -5 16 -14 19 -74 19 -65 0 -69 -1 -69 -23z" fill="#ffffff"/>
<path d="M5036 6305 c-3 -9 -6 -57 -6 -106 0 -71 3 -89 14 -89 8 0 16 12 18 27 2 20 12 29 43 40 79 27 97 81 40 119 -38 25 -101 30 -109 9z m72 -37 c16 -16 15 -45 0 -50 -24 -9 -38 4 -38 33 0 30 17 38 38 17z" fill="#ffffff"/>
<path d="M5210 6210 c0 -84 3 -111 12 -108 7 3 17 19 22 36 11 41 19 40 45 -3 13 -22 28 -35 41 -35 l20 0 -21 42 c-20 39 -20 43 -5 69 9 15 16 34 16 42 0 19 -53 52 -97 62 l-33 7 0 -112z m78 27 c4 -31 -12 -36 -28 -8 -15 29 -12 43 8 39 10 -2 18 -14 20 -31z" fill="#ffffff"/>
<path d="M5521 6298 c1 -29 55 -192 64 -195 10 -3 95 164 95 186 0 6 -6 11 -14 11 -8 0 -26 -25 -40 -55 -14 -30 -27 -55 -30 -55 -3 0 -15 27 -27 60 -12 33 -28 60 -35 60 -8 0 -14 -6 -13 -12z" fill="#ffffff"/>
<path d="M5371 6243 c0 -32 3 -76 7 -97 l7 -40 58 -4 c57 -4 59 -3 55 20 -2 19 -10 23 -45 26 -35 3 -43 7 -43 23 0 15 7 19 35 19 24 0 35 5 35 15 0 9 -9 15 -22 15 -32 0 -52 15 -45 34 4 10 19 16 42 16 24 0 35 4 35 15 0 12 -13 15 -60 15 l-60 0 1 -57z" fill="#ffffff"/>
<path d="M5700 6200 c0 -93 1 -100 20 -100 19 0 20 7 20 100 0 93 -1 100 -20 100 -19 0 -20 -7 -20 -100z" fill="#ffffff"/>
<path d="M5780 6223 c0 -117 2 -119 68 -126 31 -3 57 -5 59 -4 1 2 0 13 -4 25 -4 18 -13 22 -44 22 -51 0 -53 25 -3 46 43 18 40 40 -4 36 -27 -3 -32 0 -32 17 0 16 8 22 40 27 24 4 40 12 40 20 0 10 -16 14 -60 14 l-60 0 0 -77z" fill="#ffffff"/>
<path d="M5936 6253 c9 -64 40 -148 54 -148 6 0 19 18 29 40 l19 40 21 -48 c11 -27 25 -46 31 -42 10 6 60 156 60 181 0 33 -29 10 -48 -38 -16 -43 -21 -49 -27 -33 -11 36 -30 68 -41 72 -5 2 -18 -14 -28 -34 -17 -34 -19 -36 -27 -18 -4 11 -10 32 -13 48 -4 15 -13 27 -22 27 -13 0 -14 -8 -8 -47z" fill="#ffffff"/>
<path d="M6245 6263 c4 -10 9 -45 12 -78 2 -33 6 -70 9 -82 7 -38 24 -26 24 17 0 36 4 42 40 65 43 27 45 31 30 69 -9 24 -15 26 -66 26 -49 0 -55 -2 -49 -17z m95 -26 c0 -19 -21 -37 -42 -37 -18 0 -25 29 -11 43 12 12 53 7 53 -6z" fill="#ffffff"/>
<path d="M6390 6203 c0 -43 3 -88 6 -101 7 -24 28 -25 30 -1 3 42 5 49 12 49 4 0 17 -16 30 -35 13 -21 30 -35 42 -35 19 0 19 2 -7 41 l-28 42 23 15 c53 35 11 102 -63 102 l-45 0 0 -77z m88 20 c-4 -22 -58 -31 -58 -10 0 20 10 27 37 27 18 0 24 -5 21 -17z" fill="#ffffff"/>
<path d="M6552 6185 l3 -94 63 -3 c50 -2 62 0 60 12 -2 9 -17 15 -42 17 -44 2 -41 1 -50 31 -7 20 -4 22 28 22 25 0 36 4 36 15 0 10 -11 15 -35 15 -28 0 -35 4 -35 20 0 17 7 20 40 20 29 0 40 4 40 15 0 8 -6 16 -12 16 -7 1 -32 3 -56 4 l-44 3 4 -93z" fill="#ffffff"/>
<path d="M6706 6178 c8 -96 8 -98 35 -98 61 0 99 53 99 140 l0 36 -71 2 -70 3 7 -83z m88 46 c9 -23 -3 -81 -20 -95 -25 -20 -44 -3 -44 40 0 22 3 46 6 55 8 21 50 21 58 0z" fill="#ffffff"/>
<path d="M6890 6258 c0 -2 -1 -42 -3 -89 l-2 -87 64 -6 c36 -3 67 -3 70 -1 10 11 -18 27 -58 32 -29 4 -42 11 -47 25 -8 26 3 36 46 40 19 2 33 8 30 13 -3 6 -19 9 -37 7 -17 -1 -35 3 -39 9 -11 18 25 39 68 39 21 0 38 5 38 10 0 8 -130 16 -130 8z" fill="#ffffff"/>
<path d="M7056 6251 c-8 -12 45 -181 56 -181 5 0 18 21 29 46 24 49 30 48 49 -8 6 -21 17 -38 24 -38 17 0 69 171 56 184 -6 6 -12 2 -16 -10 -4 -10 -14 -35 -22 -54 l-15 -35 -15 48 c-9 26 -21 47 -28 47 -7 0 -23 -21 -35 -47 l-22 -48 -9 35 c-17 60 -38 85 -52 61z" fill="#ffffff"/>
<path d="M7852 6001 c-79 -27 -134 -81 -184 -181 -32 -62 -33 -70 -33 -180 0 -108 2 -119 32 -182 59 -126 169 -202 290 -202 51 0 74 6 130 35 126 64 189 189 181 362 -3 81 -8 103 -36 160 -45 91 -122 160 -209 187 -79 24 -103 25 -171 1z m89 -148 c1 -113 16 -92 18 25 1 84 5 86 86 48 86 -40 175 -167 175 -250 0 -30 -16 -36 -98 -36 -62 0 -104 -11 -91 -24 3 -3 32 -8 65 -11 130 -13 127 -12 119 -53 -10 -60 -53 -138 -91 -167 -42 -32 -131 -68 -150 -61 -8 3 -14 27 -17 58 l-3 53 -2 -57 -2 -58 -32 0 c-68 0 -174 95 -207 186 -36 94 -29 104 62 104 53 0 88 13 74 27 -5 4 -42 9 -82 11 l-74 4 -3 62 c-3 56 0 66 34 116 20 30 47 62 60 70 56 35 95 50 125 50 l33 0 1 -97z" fill="#ffffff"/>
<path d="M7920 5713 c-20 -14 -50 -69 -50 -92 0 -16 61 -81 76 -81 19 0 64 63 64 89 0 30 -26 78 -49 90 -13 7 -24 6 -41 -6z" fill="#ffffff"/>
<path d="M3768 5705 c-5 -5 -8 -21 -8 -37 l0 -28 648 0 c356 0 1092 -5 1636 -10 764 -8 991 -7 997 2 6 9 11 9 22 0 8 -7 48 -15 91 -18 l76 -7 0 37 c0 20 -6 38 -12 41 -7 2 -623 6 -1368 9 -745 3 -1517 8 -1715 12 -198 4 -363 3 -367 -1z" fill="#ffffff"/>
<path d="M3922 5482 c-134 -2 -163 -5 -160 -17 3 -11 165 -14 1063 -19 583 -3 1195 -8 1360 -11 165 -3 468 -8 673 -11 l374 -6 -4 23 c-3 24 -5 24 -153 30 -154 7 -2859 16 -3153 11z" fill="#ffffff"/>
<path d="M3898 5303 c-123 -3 -139 -6 -148 -23 -9 -17 -5 -19 73 -22 45 -3 295 -5 556 -6 260 -1 476 -4 480 -6 4 -3 509 -7 1123 -10 613 -3 1134 -8 1156 -12 55 -9 92 1 92 26 0 10 -8 21 -17 24 -18 5 -1122 19 -1628 21 -148 0 -558 3 -910 6 -352 4 -702 4 -777 2z" fill="#ffffff"/>
<path d="M3760 4709 c0 -16 6 -31 13 -34 14 -4 1647 -14 2707 -16 l735 -2 9 26 c6 15 8 28 5 31 -4 3 -1173 12 -2856 21 l-613 4 0 -30z" fill="#ffffff"/>
<path d="M3755 4510 c-4 -12 -5 -24 -2 -27 3 -2 787 -7 1741 -10 l1736 -5 0 29 0 28 -1734 4 -1734 3 -7 -22z" fill="#ffffff"/>
<path d="M3760 4332 l0 -32 463 -1 c254 -1 1035 -3 1735 -5 l1272 -3 0 29 0 30 -1298 0 c-714 0 -1495 3 -1735 7 l-437 6 0 -31z" fill="#ffffff"/>
<path d="M3760 4132 l0 -32 1733 2 1732 3 0 25 0 25 -1480 2 c-814 2 -1594 4 -1733 5 l-252 3 0 -33z" fill="#ffffff"/>
<path d="M3760 3950 l0 -30 1710 -2 c941 -1 1720 -2 1733 -2 18 -1 22 4 22 29 l0 29 -1732 3 -1733 3 0 -30z" fill="#ffffff"/>
<path d="M4609 3782 l-847 -2 -4 -32 -5 -31 371 7 c204 3 981 7 1726 7 745 1 1360 4 1367 6 7 3 13 13 13 23 0 15 -14 18 -109 24 -59 4 -459 6 -887 4 -429 -2 -1160 -4 -1625 -6z" fill="#ffffff"/>
<path d="M7209 3475 c-4 -4 -1468 -11 -3106 -14 l-343 -1 0 -36 0 -37 583 7 c320 4 1097 9 1726 12 629 2 1147 7 1152 10 11 7 12 64 1 64 -5 0 -11 -2 -13 -5z" fill="#ffffff"/>
<path d="M4760 3258 c-547 -5 -999 -13 -1004 -18 -5 -5 -6 -16 -2 -25 5 -15 148 -15 1718 -10 942 3 1721 5 1731 5 12 0 17 8 17 29 l0 28 -732 0 c-403 0 -1181 -4 -1728 -9z" fill="#ffffff"/>
<path d="M5145 3082 c-77 -1 -420 -6 -762 -10 -342 -4 -625 -10 -628 -14 -4 -4 -5 -19 -1 -33 l6 -25 258 0 c229 0 657 6 1712 25 179 3 588 8 910 11 l585 5 3 26 4 26 -974 -4 c-535 -2 -1036 -5 -1113 -7z" fill="#ffffff"/>
<path d="M5540 2879 c-190 -3 -668 -10 -1063 -14 l-718 -8 3 -21 3 -21 595 3 c327 1 850 7 1162 12 311 6 821 10 1132 11 l566 0 0 24 0 25 -667 -2 c-368 -1 -823 -5 -1013 -9z" fill="#ffffff"/>
<path d="M6990 2685 c-19 -19 -37 -35 -41 -35 -3 0 -9 14 -13 31 -3 17 -9 28 -13 26 -11 -7 -3 -167 8 -167 5 0 9 14 9 30 0 17 3 30 6 30 3 0 19 -13 34 -30 25 -27 60 -41 60 -24 0 3 -14 24 -31 45 l-31 40 27 40 c36 51 28 58 -15 14z" fill="#ffffff"/>
<path d="M6620 2678 c0 -18 -11 -51 -25 -73 -25 -41 -32 -75 -16 -75 5 0 15 9 22 20 8 11 29 23 46 26 29 6 34 3 44 -22 10 -24 13 -26 17 -10 4 17 -10 53 -51 135 -19 38 -37 38 -37 -1z m50 -80 c0 -4 -7 -5 -15 -2 -8 4 -15 16 -15 28 1 21 1 21 15 2 8 -11 15 -23 15 -28z" fill="#ffffff"/>
<path d="M5100 2601 c0 -83 3 -101 15 -101 12 0 15 17 15 89 0 66 -4 92 -15 101 -13 11 -15 0 -15 -89z" fill="#ffffff"/>
<path d="M5695 2678 c-10 -41 -1 -161 13 -166 9 -3 12 19 12 87 0 86 -13 127 -25 79z" fill="#ffffff"/>
<path d="M5990 2611 c0 -99 16 -119 22 -27 l3 50 44 -58 c26 -33 48 -53 53 -48 13 13 5 165 -9 169 -8 3 -10 -14 -6 -59 l4 -63 -23 30 c-12 17 -37 46 -55 65 l-32 35 -1 -94z" fill="#ffffff"/>
<path d="M6252 2693 c-17 -7 -5 -23 19 -23 17 0 19 -7 19 -75 0 -59 3 -75 15 -75 11 0 15 18 17 78 3 73 4 77 26 74 15 -2 22 2 22 12 0 13 -11 16 -52 15 -29 0 -59 -3 -66 -6z" fill="#ffffff"/>
<path d="M6410 2610 c0 -91 13 -120 26 -55 3 20 12 35 20 35 8 0 20 -16 28 -35 9 -20 22 -35 32 -35 12 0 14 5 9 18 -14 32 -17 70 -6 76 18 11 13 44 -11 66 -14 13 -35 20 -60 20 l-38 0 0 -90z m82 45 c13 -29 1 -49 -24 -40 -17 7 -31 43 -22 57 10 16 35 7 46 -17z" fill="#ffffff"/>
<path d="M6770 2680 c-30 -30 -26 -83 8 -121 25 -28 32 -31 58 -22 38 13 48 47 11 37 -34 -8 -65 3 -72 27 -15 46 27 90 64 67 25 -15 38 -4 21 17 -18 21 -66 19 -90 -5z" fill="#ffffff"/>
<path d="M7070 2636 c0 -89 4 -96 55 -96 45 0 67 13 39 24 -9 3 -27 6 -40 6 -17 0 -24 6 -24 20 0 15 7 20 25 20 31 0 33 17 3 22 -31 4 -33 25 -3 32 42 11 31 36 -15 36 l-40 0 0 -64z" fill="#ffffff"/>
<path d="M7216 2633 c3 -38 8 -74 10 -81 6 -19 24 -5 24 19 0 26 20 24 49 -6 38 -40 53 -33 24 11 -13 21 -14 30 -5 45 30 48 4 79 -67 79 l-40 0 5 -67z m74 26 c0 -12 -29 -38 -42 -39 -10 0 -10 34 -1 43 11 11 43 8 43 -4z" fill="#ffffff"/>
<path d="M5208 2662 c-23 -21 -31 -38 -31 -61 0 -78 84 -119 133 -65 l25 27 -27 -7 c-16 -3 -39 -9 -52 -12 -30 -7 -49 22 -44 69 3 31 4 32 56 35 48 3 51 5 42 23 -16 29 -63 25 -102 -9z" fill="#ffffff"/>
<path d="M5417 2683 c-5 -8 -51 -126 -61 -155 -6 -21 12 -24 20 -4 3 8 20 20 37 25 28 10 34 9 54 -14 30 -31 47 -33 37 -2 -13 41 -69 157 -76 157 -4 0 -9 -3 -11 -7z m19 -100 c-11 -11 -19 6 -11 24 8 17 8 17 12 0 3 -10 2 -21 -1 -24z" fill="#ffffff"/>
<path d="M5525 2680 c-9 -15 4 -30 26 -30 17 0 19 -7 19 -70 0 -40 4 -70 10 -70 6 0 10 13 10 29 0 15 3 49 6 75 6 40 10 46 30 46 42 0 26 17 -22 24 -63 8 -72 8 -79 -4z" fill="#ffffff"/>
<path d="M5805 2666 c-50 -51 -37 -117 29 -141 53 -18 116 43 102 98 -16 66 -86 88 -131 43z m85 -16 c28 -28 26 -66 -5 -86 -28 -18 -60 -11 -75 17 -16 30 16 84 53 88 4 1 16 -8 27 -19z" fill="#ffffff"/>
<path d="M4434 2648 c-21 -41 -54 -137 -54 -157 1 -11 7 -8 23 12 29 35 91 39 100 6 8 -29 33 -18 28 12 -3 24 -68 159 -76 159 -2 0 -12 -14 -21 -32z m40 -64 c9 -23 8 -24 -14 -24 -19 0 -27 20 -13 33 11 11 20 8 27 -9z" fill="#ffffff"/>
<path d="M4770 2586 c0 -53 4 -98 10 -101 6 -4 10 8 10 28 0 32 2 34 48 43 43 8 47 11 50 41 4 45 -34 83 -83 83 l-35 0 0 -94z m64 48 c26 -25 20 -46 -11 -42 -22 2 -29 9 -31 31 -4 31 17 37 42 11z" fill="#ffffff"/>
<path d="M4935 2671 c-3 -5 -2 -48 1 -95 l7 -85 51 6 c28 3 55 9 60 13 16 15 -5 30 -43 30 -37 0 -39 2 -45 38 -3 20 -6 52 -6 70 0 31 -12 42 -25 23z" fill="#ffffff"/>
<path d="M4110 2573 l0 -93 44 0 c27 0 52 7 65 18 20 15 21 23 15 74 -9 77 -20 90 -77 93 l-47 2 0 -94z m88 29 c5 -15 -44 -16 -53 -2 -4 6 -4 18 -1 27 6 13 9 14 28 1 12 -8 24 -20 26 -26z m2 -61 c0 -11 -9 -21 -22 -25 -35 -9 -38 -8 -38 19 0 21 5 25 30 25 23 0 30 -5 30 -19z" fill="#ffffff"/>
<path d="M4585 2588 c0 -93 17 -140 25 -73 5 38 7 40 45 43 56 4 70 21 56 65 -14 40 -26 47 -84 47 l-42 0 0 -82z m93 24 c3 -21 0 -23 -30 -20 -26 2 -34 8 -36 26 -3 21 0 23 30 20 26 -2 34 -8 36 -26z" fill="#ffffff"/>
<path d="M3810 2580 c0 -78 -5 -91 -27 -69 -6 6 -21 8 -34 4 l-23 -8 28 -23 c33 -29 40 -30 66 -4 17 17 20 33 20 100 0 64 -3 80 -15 80 -12 0 -15 -16 -15 -80z" fill="#ffffff"/>
<path d="M3921 2629 c-43 -42 -42 -84 2 -127 45 -43 69 -41 106 10 39 53 39 76 -2 116 -41 40 -67 40 -106 1z m89 -29 c26 -26 25 -33 -4 -66 -23 -27 -24 -28 -50 -11 -18 12 -26 26 -26 45 0 52 43 69 80 32z" fill="#ffffff"/>
<path d="M7844 4761 c-61 -28 -118 -84 -169 -166 -78 -124 -84 -270 -19 -415 53 -118 182 -205 304 -205 126 1 216 66 283 204 38 77 42 95 45 172 6 151 -37 262 -135 349 -86 75 -220 102 -309 61z m224 -77 c93 -46 154 -142 156 -243 1 -48 -2 -56 -23 -67 l-24 -12 24 -4 c22 -3 24 -7 23 -53 -3 -102 -63 -191 -159 -236 -75 -36 -105 -38 -105 -6 -1 20 -2 21 -14 5 -17 -23 -64 -23 -96 -2 -91 61 -170 180 -170 257 0 32 3 37 23 37 12 0 29 4 37 10 12 7 11 10 -5 15 -60 19 -65 24 -65 59 0 73 58 181 117 217 88 55 199 64 281 23z" fill="#ffffff"/>
<path d="M7945 4647 c-9 -22 -15 -57 -13 -80 2 -34 7 -42 23 -42 17 0 20 8 23 55 2 31 -1 67 -7 80 -9 25 -9 25 -26 -13z" fill="#ffffff"/>
<path d="M7922 4442 c-39 -36 -41 -65 -7 -115 43 -63 75 -44 75 44 0 40 -5 63 -18 79 l-18 22 -32 -30z" fill="#ffffff"/>
<path d="M8158 3505 c-2 -3 -115 -6 -251 -7 l-246 -1 -6 -52 c-4 -28 -5 -204 -3 -391 2 -274 6 -343 18 -361 14 -22 14 -22 284 -16 154 3 276 10 284 16 9 7 12 101 12 407 l0 398 -22 6 c-28 7 -63 8 -70 1z m38 -415 l-1 -350 -243 0 -242 0 1 350 2 350 242 0 242 0 -1 -350z" fill="#ffffff"/>
<path d="M7790 3340 c10 -19 21 -20 160 -20 143 0 150 1 150 20 0 19 -7 20 -160 20 -158 0 -160 0 -150 -20z" fill="#ffffff"/>
<path d="M7798 3180 l4 -39 112 5 c173 8 196 12 196 35 0 31 -40 39 -183 39 l-133 0 4 -40z" fill="#ffffff"/>
<path d="M7813 3083 c-7 -2 -13 -13 -13 -24 0 -21 -1 -21 180 -19 103 1 130 9 130 36 0 11 -28 14 -142 13 -79 0 -149 -3 -155 -6z" fill="#ffffff"/>
<path d="M7797 2944 c-4 -4 -7 -18 -7 -32 0 -24 2 -25 53 -18 28 3 103 6 165 6 112 0 113 0 110 23 -3 22 -6 22 -159 25 -85 1 -158 -1 -162 -4z" fill="#ffffff"/>
<path d="M7933 2273 l-113 -4 0 -48 0 -48 -85 -5 c-47 -2 -88 -8 -92 -12 -4 -4 -6 -159 -4 -344 2 -270 6 -342 17 -365 l15 -28 172 7 c385 14 400 16 414 44 9 19 13 109 13 352 0 377 9 348 -103 348 -70 0 -77 5 -77 59 0 28 -17 52 -34 49 -6 -1 -62 -4 -123 -5z m107 -80 l0 -28 -85 3 c-73 3 -85 6 -85 21 0 28 9 31 92 31 l78 0 0 -27z m173 -86 c3 -7 4 -60 3 -118 l-1 -104 -165 3 c-159 3 -305 -9 -323 -27 -13 -13 82 -31 157 -31 66 0 250 16 299 26 l27 6 0 -180 0 -180 -137 -6 c-358 -16 -364 -16 -368 -3 -2 7 -6 148 -9 314 l-5 303 252 3 c139 1 255 3 258 5 4 1 9 -4 12 -11z" fill="#ffffff"/>
<path d="M7782 1733 c-17 -3 -22 -10 -20 -26 3 -22 5 -22 168 -19 172 3 220 8 220 22 0 20 -72 30 -204 29 -78 -1 -151 -4 -164 -6z" fill="#ffffff"/>
<path d="M6921 2133 c-27 -18 -27 -57 -1 -83 29 -29 55 -25 70 10 24 57 -23 106 -69 73z" fill="#ffffff"/>
<path d="M6951 1971 c-15 -27 -34 -550 -21 -564 4 -5 18 -7 31 -5 21 3 24 8 21 43 -1 22 -2 132 -2 245 0 113 -3 228 -8 255 -8 48 -8 49 -21 26z" fill="#ffffff"/>
<path d="M5906 2098 c-3 -13 -6 -39 -6 -60 l0 -36 -105 -4 c-60 -2 -109 -8 -115 -14 -12 -12 -15 -509 -4 -538 8 -21 26 -22 336 -16 216 4 290 8 300 18 10 10 14 77 16 277 3 311 13 289 -127 284 l-86 -4 -5 55 -5 55 -96 3 c-93 3 -97 2 -103 -20z m159 -59 c10 -31 -6 -41 -61 -37 -45 3 -49 5 -52 31 -3 27 -2 27 52 27 47 0 56 -3 61 -21z m215 -204 l0 -115 -62 1 c-77 1 -152 12 -195 30 -29 12 -35 11 -62 -9 -26 -19 -43 -22 -131 -22 l-100 0 0 33 c0 19 -3 68 -6 110 l-7 77 249 3 c137 1 264 3 282 5 l32 2 0 -115z m-330 -180 c34 -36 92 -35 109 1 10 24 16 26 49 20 20 -3 67 -6 105 -6 l67 0 0 -52 c0 -29 -3 -69 -6 -88 l-6 -35 -206 -4 c-114 -3 -236 -5 -272 -5 l-65 -1 0 92 0 92 45 4 c131 10 156 8 180 -18z" fill="#ffffff"/>
<path d="M5025 2092 c-46 -9 -85 -69 -85 -129 0 -47 28 -95 70 -119 26 -16 30 -23 25 -44 -3 -14 -9 -121 -12 -238 l-5 -213 28 4 29 4 -1 241 c0 133 3 242 7 242 4 0 21 21 38 47 37 56 41 112 11 161 -11 17 -21 32 -22 32 -2 0 -17 4 -33 8 -17 5 -39 6 -50 4z" fill="#ffffff"/>
<path d="M4041 1958 c-90 -48 -93 -197 -6 -234 43 -18 59 -18 99 1 42 20 66 63 66 119 0 38 -6 52 -32 81 -37 40 -88 53 -127 33z m79 -78 c36 -36 20 -110 -25 -110 -33 0 -55 25 -55 62 0 33 24 68 47 68 7 0 22 -9 33 -20z" fill="#ffffff"/>
<path d="M3896 1682 c-4 -11 -2 -32 4 -47 10 -26 12 -26 33 -12 14 9 22 25 22 43 0 24 -5 30 -27 32 -19 2 -28 -2 -32 -16z" fill="#ffffff"/>
<path d="M4212 1668 c2 -26 8 -34 27 -36 21 -3 40 11 41 30 0 14 -32 38 -51 38 -17 0 -20 -6 -17 -32z" fill="#ffffff"/>
<path d="M4081 1667 c-11 -14 -19 -252 -9 -262 2 -3 13 1 22 8 16 12 19 30 20 130 1 118 -8 153 -33 124z" fill="#ffffff"/>
<path d="M7864 1032 c-74 -28 -102 -50 -151 -115 -80 -109 -95 -246 -40 -359 55 -111 135 -163 252 -162 113 1 198 52 261 160 56 95 66 183 33 289 -46 151 -214 239 -355 187z m56 -74 c0 -61 13 -138 21 -132 5 3 9 41 9 85 l0 79 28 -6 c50 -12 108 -44 139 -77 40 -42 73 -105 73 -139 0 -28 -11 -33 -95 -40 -20 -2 -31 -9 -33 -22 -4 -17 1 -18 62 -14 76 6 76 6 42 -67 -41 -88 -111 -151 -188 -169 l-28 -6 0 80 c0 48 4 80 10 80 6 0 13 8 17 17 3 10 15 28 25 39 25 28 16 66 -24 99 -37 31 -39 31 -77 -1 -24 -20 -31 -34 -31 -63 0 -38 23 -81 43 -81 8 0 12 -26 12 -85 0 -84 0 -85 -25 -85 -66 0 -162 79 -186 154 -9 28 -19 56 -21 63 -3 8 14 13 59 15 50 2 63 6 66 21 3 15 -5 17 -63 17 l-67 0 7 33 c19 91 99 196 168 220 58 21 57 21 57 -15z m36 -243 c21 -40 12 -70 -22 -70 -15 0 -20 9 -22 39 -6 72 14 87 44 31z" fill="#ffffff"/>
<path d="M6855 1018 c-2 -7 -6 -29 -7 -48 l-3 -35 -85 -5 c-47 -3 -91 -9 -97 -13 -10 -6 -13 -67 -13 -248 0 -298 -7 -284 139 -275 53 3 173 8 266 12 121 4 177 10 193 20 l22 15 -2 247 -3 247 -86 3 -87 3 -7 44 -6 45 -110 0 c-79 0 -111 -4 -114 -12z m173 -65 c-3 -15 -16 -19 -66 -21 -47 -2 -62 0 -62 11 0 23 11 27 72 27 51 0 59 -2 56 -17z m192 -168 l0 -105 -91 0 c-76 0 -95 3 -116 20 -34 27 -69 25 -105 -5 -27 -23 -38 -25 -119 -25 l-89 0 0 100 0 100 143 1 c78 1 185 5 237 9 52 3 105 7 118 8 22 2 22 0 22 -103z m-230 -133 c0 -21 -18 -42 -37 -42 -16 0 -17 32 -1 48 18 18 38 15 38 -6z m-96 -51 c17 -33 34 -41 80 -41 33 0 57 18 69 53 5 14 20 17 95 17 l89 0 2 -72 c1 -40 -2 -78 -6 -85 -6 -8 -85 -12 -266 -15 l-257 -3 0 82 0 82 73 4 c39 1 80 4 89 5 10 1 24 -10 32 -27z" fill="#ffffff"/>
<path d="M5923 970 c-77 -39 -138 -105 -159 -174 -21 -71 -30 -214 -15 -258 15 -44 82 -123 125 -145 20 -11 57 -16 111 -16 129 -1 216 50 273 158 23 42 27 62 26 130 0 114 -18 175 -66 230 -53 60 -115 95 -180 102 -46 4 -62 0 -115 -27z m162 -44 c91 -43 145 -121 145 -210 0 -50 -9 -56 -97 -56 -52 0 -53 1 -53 29 0 74 -93 113 -125 51 -8 -16 -15 -40 -15 -54 0 -23 -4 -25 -64 -31 -36 -4 -70 -4 -76 0 -17 10 -5 98 20 150 28 58 147 143 200 145 8 0 38 -11 65 -24z m138 -340 c-3 -41 -49 -94 -108 -125 -72 -38 -171 -37 -236 1 -50 30 -79 76 -79 127 l0 31 78 0 c71 0 80 -2 100 -25 18 -21 26 -24 42 -15 11 6 24 18 29 28 8 15 20 16 92 12 l84 -5 -2 -29z" fill="#ffffff"/>
<path d="M4951 938 c-54 -27 -124 -98 -153 -158 -19 -37 -23 -62 -23 -145 0 -91 3 -104 27 -146 30 -51 90 -109 140 -135 83 -44 221 -9 307 77 61 61 84 117 89 215 4 72 1 89 -20 136 -54 118 -141 178 -258 178 -47 0 -77 -6 -109 -22z m212 -65 c27 -15 57 -38 67 -52 50 -71 65 -203 31 -277 -56 -122 -221 -183 -319 -117 -78 53 -112 118 -112 216 0 148 122 278 244 262 22 -3 62 -18 89 -32z" fill="#ffffff"/>
<path d="M4985 765 c-27 -26 -34 -89 -15 -126 17 -31 64 -51 95 -39 107 41 96 190 -15 190 -30 0 -47 -6 -65 -25z m99 -27 c21 -30 20 -51 -4 -73 -13 -12 -27 -15 -45 -11 -21 5 -25 12 -25 44 0 61 43 84 74 40z" fill="#ffffff"/>
<path d="M3994 920 c-74 -30 -128 -81 -166 -158 -30 -61 -33 -75 -33 -157 0 -73 4 -98 22 -131 32 -61 69 -101 122 -132 40 -24 56 -27 131 -27 69 0 93 5 128 23 113 60 172 153 180 283 4 74 2 84 -27 144 -66 134 -230 205 -357 155z m186 -67 c84 -34 140 -125 140 -226 0 -80 -17 -120 -72 -174 -145 -141 -340 -86 -398 113 -10 33 -9 52 4 103 43 168 179 244 326 184z" fill="#ffffff"/>
<path d="M4008 750 c-28 -28 -30 -35 -26 -82 4 -42 11 -57 37 -80 45 -40 71 -36 120 17 53 58 56 103 10 146 -44 41 -99 40 -141 -1z m110 -22 c28 -28 -1 -108 -40 -108 -41 0 -63 73 -32 104 18 19 55 21 72 4z" fill="#ffffff"/>
<path d="M2894 9390 c0 -63 1 -89 3 -57 2 31 2 83 0 115 -2 31 -3 5 -3 -58z" fill="#ffffff"/>
<path d="M4254 8923 c1 -419 0 -440 -19 -478 -11 -22 -36 -50 -55 -63 -31 -22 -43 -24 -112 -19 -103 7 -157 35 -177 94 -17 49 -27 53 -132 53 -99 0 -111 -12 -111 -105 1 -106 50 -173 184 -248 137 -77 298 -87 438 -28 108 46 161 98 210 209 l40 90 7 459 6 460 -99 6 c-54 4 -117 7 -140 7 l-41 0 1 -437z" fill="#ffffff"/>
<path d="M5280 9264 c-13 -39 -41 -103 -205 -459 -48 -104 -126 -278 -175 -385 -48 -107 -104 -230 -124 -272 -20 -42 -36 -79 -36 -82 0 -3 65 -6 144 -6 l143 0 47 95 c25 52 46 100 46 106 0 8 38 9 128 5 392 -20 518 -29 525 -36 5 -4 26 -52 46 -106 l37 -99 133 -9 c72 -4 134 -6 137 -3 6 5 -39 121 -109 282 -19 44 -63 148 -97 230 -63 154 -115 274 -225 520 -34 77 -70 161 -79 186 l-18 46 -101 7 c-56 4 -125 9 -153 13 l-52 5 -12 -38z m289 -568 c44 -104 81 -193 81 -198 0 -7 -398 -1 -407 6 -5 4 50 163 63 184 9 13 22 47 31 75 8 29 35 92 60 141 l45 89 22 -54 c13 -30 60 -139 105 -243z" fill="#ffffff"/>
<path d="M6140 9111 c0 -100 3 -120 16 -125 16 -6 250 -24 374 -29 l65 -2 3 -487 2 -488 79 0 c43 0 99 -3 125 -6 l46 -7 0 488 0 488 73 -6 c39 -4 136 -10 215 -13 l142 -7 0 121 0 121 -32 5 c-34 5 -227 18 -563 37 -104 5 -255 14 -335 19 -80 5 -160 10 -177 10 l-33 0 0 -119z" fill="#ffffff"/>
<path d="M8312 9180 c-13 -5 -32 -29 -42 -53 -37 -82 9 -167 89 -167 22 0 48 8 61 18 26 21 40 84 28 128 -15 59 -83 96 -136 74z m84 -85 c15 -23 15 -27 0 -50 -27 -41 -76 -27 -76 21 0 25 24 54 45 54 8 0 22 -11 31 -25z" fill="#ffffff"/>
<path d="M1530 8564 c0 -8 5 -12 10 -9 6 3 10 10 10 16 0 5 -4 9 -10 9 -5 0 -10 -7 -10 -16z" fill="#ffffff"/>
<path d="M2625 8530 c-3 -5 -1 -10 4 -10 6 0 11 5 11 10 0 6 -2 10 -4 10 -3 0 -8 -4 -11 -10z" fill="#ffffff"/>
<path d="M2760 8528 c0 -9 9 -26 20 -39 19 -23 19 -23 20 -3 0 11 -9 29 -20 39 -17 15 -20 16 -20 3z" fill="#ffffff"/>
<path d="M2820 8506 c0 -8 5 -18 11 -22 8 -4 7 -9 -2 -16 -11 -7 -11 -11 -1 -15 8 -3 13 -30 14 -76 l2 -72 4 65 c4 76 -5 150 -19 150 -5 0 -9 -6 -9 -14z" fill="#ffffff"/>
<path d="M2560 8480 c-8 -5 -11 -10 -6 -10 6 0 1 -7 -10 -15 -18 -14 -17 -14 9 -4 15 7 27 18 27 26 0 15 -1 16 -20 3z" fill="#ffffff"/>
<path d="M2787 8440 c-15 -36 -12 -74 6 -78 19 -4 22 22 7 68 -5 18 -9 21 -13 10z" fill="#ffffff"/>
<path d="M2752 8330 c0 -14 2 -19 5 -12 2 6 2 18 0 25 -3 6 -5 1 -5 -13z" fill="#ffffff"/>
<path d="M3710 7816 c0 -52 -3 -101 -6 -110 -8 -20 -40 -21 -48 -1 -8 22 -44 18 -57 -7 -10 -19 -8 -25 22 -50 54 -45 99 -37 129 23 16 30 20 59 20 139 l0 100 -30 0 -30 0 0 -94z" fill="#ffffff"/>
<path d="M3873 7890 c-43 -26 -63 -68 -63 -131 0 -65 28 -112 82 -140 49 -25 75 -20 124 23 47 42 67 88 58 136 -20 109 -117 164 -201 112z m90 -51 c51 -23 63 -104 22 -144 -42 -43 -86 -28 -109 39 -16 47 -11 70 22 96 29 23 33 24 65 9z" fill="#ffffff"/>
<path d="M4114 7884 c3 -9 6 -78 6 -155 l0 -139 73 0 c67 0 76 2 99 28 41 43 46 78 14 111 -24 25 -25 29 -11 41 20 16 19 45 -2 81 -21 35 -59 49 -131 49 -45 0 -53 -3 -48 -16z m124 -81 c3 -17 -3 -24 -22 -29 -33 -8 -46 1 -46 32 0 22 4 25 33 22 24 -2 33 -8 35 -25z m10 -100 c15 -30 3 -43 -39 -43 -34 0 -39 3 -39 23 0 31 7 37 41 37 17 0 32 -7 37 -17z" fill="#ffffff"/>
<path d="M4535 7780 c-25 -60 -52 -130 -59 -155 l-14 -45 34 0 c26 0 34 4 34 18 0 29 21 42 67 42 39 0 44 -3 57 -35 12 -27 21 -35 40 -35 31 0 31 7 7 85 -42 136 -89 235 -112 235 -4 0 -28 -49 -54 -110z m85 -72 c0 -13 -8 -18 -30 -18 -35 0 -35 -2 -13 52 l17 42 12 -29 c7 -17 13 -38 14 -47z" fill="#ffffff"/>
<path d="M4760 7730 c0 -77 -1 -143 -2 -147 -2 -5 9 -9 25 -11 26 -3 27 -2 27 41 l0 45 42 7 c54 10 98 52 98 95 0 67 -59 110 -152 110 l-38 0 0 -140z m101 70 c12 -7 19 -21 19 -40 0 -28 -3 -30 -35 -30 -33 0 -35 2 -35 33 0 48 13 57 51 37z" fill="#ffffff"/>
<path d="M4986 7830 c-3 -18 -6 -88 -6 -156 l0 -123 28 2 c24 2 27 6 32 47 5 40 8 45 37 51 75 15 112 65 93 124 -18 54 -52 78 -119 83 l-58 4 -7 -32z m112 -52 c20 -20 14 -48 -12 -60 -37 -16 -56 -4 -56 37 0 32 3 35 28 35 15 0 33 -5 40 -12z" fill="#ffffff"/>
<path d="M5200 7802 c0 -27 3 -96 6 -153 l7 -104 78 3 79 4 0 29 c0 28 -2 29 -49 29 -48 0 -48 0 -55 38 -3 20 -6 74 -6 120 l0 82 -30 0 c-29 0 -30 -1 -30 -48z" fill="#ffffff"/>
<path d="M5418 7690 l3 -150 25 0 24 0 0 145 c0 119 -3 145 -14 145 -8 0 -20 2 -28 5 -10 4 -12 -23 -10 -145z" fill="#ffffff"/>
<path d="M5595 7810 c-59 -29 -89 -79 -83 -135 9 -73 72 -147 125 -147 25 0 93 56 93 78 0 19 -26 24 -47 9 -73 -56 -156 62 -88 125 25 24 26 24 73 7 26 -9 51 -17 55 -17 18 0 0 54 -23 71 -40 28 -63 30 -105 9z" fill="#ffffff"/>
<path d="M5850 7795 c-5 -14 -30 -72 -55 -129 -54 -124 -55 -136 -16 -136 23 0 30 5 33 23 3 19 10 22 55 25 50 3 51 2 58 -28 5 -24 12 -30 32 -30 24 0 25 2 18 38 -9 52 -64 212 -82 239 -20 30 -31 29 -43 -2z m38 -118 c16 -46 15 -49 -10 -41 -31 9 -31 9 -23 43 9 40 18 39 33 -2z" fill="#ffffff"/>
<path d="M5970 7771 c0 -26 4 -30 33 -33 l32 -3 3 -107 c3 -108 3 -108 28 -108 l25 0 -2 108 c-2 117 -6 108 59 111 18 1 23 6 20 23 -4 27 -32 35 -130 37 l-68 1 0 -29z" fill="#ffffff"/>
<path d="M6206 7792 c-3 -3 -6 -68 -6 -144 l0 -138 30 0 30 0 -4 53 c-2 28 -4 91 -5 138 -1 77 -3 87 -20 92 -11 3 -22 2 -25 -1z" fill="#ffffff"/>
<path d="M6362 7770 c-35 -22 -62 -72 -62 -117 0 -35 33 -103 65 -133 51 -48 128 -19 171 62 29 57 10 134 -45 181 -39 33 -83 35 -129 7z m90 -51 c26 -14 51 -74 42 -102 -27 -91 -134 -65 -134 32 0 66 41 97 92 70z" fill="#ffffff"/>
<path d="M6590 7651 c0 -71 -3 -136 -6 -145 -5 -13 1 -16 25 -16 l31 0 0 78 0 77 20 -25 c11 -14 32 -45 46 -70 26 -47 58 -75 74 -65 13 8 13 285 1 285 -5 0 -16 3 -25 6 -13 5 -16 -7 -18 -77 l-3 -84 -48 65 c-67 90 -75 100 -87 100 -6 0 -10 -49 -10 -129z" fill="#ffffff"/>
<path d="M2824 7744 c-4 -10 -9 -22 -11 -26 -2 -5 3 -8 12 -8 20 0 31 28 17 42 -8 8 -13 6 -18 -8z" fill="#ffffff"/>
<path d="M6932 7728 c3 -29 7 -33 36 -36 l32 -3 0 -115 0 -114 25 0 25 0 0 115 0 115 30 0 c25 0 30 4 30 25 0 30 -3 32 -103 40 l-78 6 3 -33z" fill="#ffffff"/>
<path d="M7146 7741 c-1 -3 0 -69 3 -146 5 -123 8 -140 24 -143 13 -3 17 3 17 25 1 81 25 88 66 17 19 -33 32 -44 50 -44 30 0 30 2 -3 61 l-26 49 26 28 c15 16 27 36 27 46 0 25 -36 82 -58 92 -23 10 -123 22 -126 15z m114 -71 c32 -32 19 -62 -25 -62 -33 0 -41 8 -50 50 -6 31 -5 32 24 32 18 0 40 -9 51 -20z" fill="#ffffff"/>
<path d="M7443 7723 c-3 -10 -25 -69 -49 -131 -24 -63 -44 -120 -44 -128 0 -25 40 -16 50 11 8 22 15 25 59 25 46 0 50 -2 60 -30 7 -21 17 -30 32 -30 19 0 21 4 14 38 -10 54 -64 213 -81 240 -17 26 -32 28 -41 5z m18 -163 c-33 -7 -38 10 -15 46 l18 27 12 -34 c10 -32 10 -34 -15 -39z" fill="#ffffff"/>
<path d="M7639 7703 c-60 -51 -74 -121 -36 -187 26 -46 60 -74 103 -82 24 -5 36 0 63 25 41 39 33 55 -24 47 -34 -4 -49 -1 -69 15 -34 27 -44 81 -21 115 15 23 22 26 54 21 20 -3 46 -9 59 -13 34 -10 29 29 -9 60 -40 34 -79 33 -120 -1z" fill="#ffffff"/>
<path d="M7831 7605 c-2 -133 4 -165 30 -165 14 0 19 9 21 43 2 23 8 42 15 42 6 0 27 -22 45 -50 20 -29 44 -51 56 -53 32 -5 28 16 -19 88 -46 71 -46 87 1 155 16 23 26 45 23 49 -15 15 -34 3 -68 -44 -20 -27 -41 -50 -46 -50 -5 0 -9 23 -9 50 0 46 -2 50 -24 50 -23 0 -23 -1 -25 -115z" fill="#ffffff"/>
<path d="M8063 7568 l2 -143 78 -3 77 -3 0 31 c0 30 0 30 -56 30 -54 0 -55 0 -52 27 2 19 10 29 23 31 54 8 65 13 65 32 0 15 -8 19 -42 22 -38 3 -43 6 -43 28 0 23 4 25 53 28 48 3 52 5 52 28 0 23 -3 24 -57 24 -32 0 -68 3 -80 6 -22 6 -22 5 -20 -138z" fill="#ffffff"/>
<path d="M8260 7563 c0 -131 1 -141 19 -146 27 -7 31 0 31 45 0 36 1 38 21 28 11 -7 27 -27 35 -46 12 -30 19 -34 50 -34 l36 0 -25 30 c-37 44 -42 68 -19 93 28 32 32 51 21 91 -13 46 -40 64 -112 72 l-57 7 0 -140z m108 65 c17 -17 15 -55 -4 -62 -39 -15 -54 -7 -54 27 0 19 3 37 7 40 10 11 38 8 51 -5z" fill="#ffffff"/>
<path d="M2801 7524 c0 -11 3 -14 6 -6 3 7 2 16 -1 19 -3 4 -6 -2 -5 -13z" fill="#ffffff"/>
<path d="M1456 7481 c-4 -7 -5 -15 -2 -18 9 -9 19 4 14 18 -4 11 -6 11 -12 0z" fill="#ffffff"/>
<path d="M2810 7341 c0 -5 7 -12 16 -15 24 -9 27 -7 10 9 -17 17 -26 19 -26 6z" fill="#ffffff"/>
<path d="M3746 6875 c-19 -19 -21 -56 -4 -73 17 -17 69 -15 125 4 46 16 67 15 183 -2 19 -3 72 -8 116 -11 78 -4 82 -3 87 18 12 47 -6 52 -148 44 -158 -9 -189 -8 -240 9 -77 26 -101 28 -119 11z" fill="#ffffff"/>
<path d="M8102 6708 c-13 -13 -17 -68 -4 -68 4 0 54 -1 111 -3 l105 -2 7 28 c14 53 6 57 -105 57 -66 0 -106 -4 -114 -12z" fill="#ffffff"/>
<path d="M1454 6349 c-3 -6 -2 -15 3 -20 5 -5 9 -1 9 11 0 23 -2 24 -12 9z" fill="#ffffff"/>
<path d="M1396 5463 c-6 -14 -5 -15 5 -6 7 7 10 15 7 18 -3 3 -9 -2 -12 -12z" fill="#ffffff"/>
<path d="M2763 4167 c-1 -11 -1 -18 0 -16 2 2 8 11 15 20 9 12 9 16 -1 16 -7 0 -14 -9 -14 -20z" fill="#ffffff"/>
<path d="M2777 3529 c7 -7 15 -10 18 -7 3 3 -2 9 -12 12 -14 6 -15 5 -6 -5z" fill="#ffffff"/>
<path d="M2779 2832 c9 -7 10 -11 2 -15 -7 -4 -8 -5 -1 -3 16 2 14 20 -2 24 -10 3 -10 2 1 -6z" fill="#ffffff"/>
<path d="M2814 1700 c0 -13 4 -16 10 -10 7 7 7 13 0 20 -6 6 -10 3 -10 -10z" fill="#ffffff"/>
<path d="M2797 1611 c-3 -14 -1 -18 9 -14 8 3 14 11 14 19 0 21 -17 17 -23 -5z" fill="#ffffff"/>
<path d="M1088 993 c6 -2 18 -2 25 0 6 3 1 5 -13 5 -14 0 -19 -2 -12 -5z" fill="#ffffff"/>
<path d="M970 553 c0 -5 5 -15 10 -23 8 -12 10 -11 10 8 0 12 -4 22 -10 22 -5 0 -10 -3 -10 -7z" fill="#ffffff"/>
</g>
</svg>